<svg width="242" height="140" viewBox="0 0 242 140" fill="none" xmlns="http://www.w3.org/2000/svg">
<path d="M121.5 1.5C137.227 1.5 152.793 3.06724 167.306 6.1084C181.821 9.15005 194.977 13.6018 206.029 19.1934C217.088 24.7879 225.778 31.3905 231.667 38.583C237.57 45.7927 240.5 52.7249 240.5 60.291V104.505C240.5 122.176 226.184 136.5 208.527 136.5H34.4727C16.8159 136.5 2.50002 122.176 2.5 104.505V60.291C2.50006 52.7249 5.43005 45.7927 11.333 38.583C17.2219 31.3905 25.9122 24.7879 36.9707 19.1934C48.0234 13.6018 61.1793 9.15005 75.6943 6.1084C90.2071 3.06724 105.773 1.5 121.5 1.5Z" fill="#FFEBAE" stroke="#FDE393" stroke-width="3"/>
<path d="M221 100C221 95.4037 218.439 90.8525 213.464 86.6061C208.489 82.3597 201.197 78.5013 192.004 75.2513C182.811 72.0012 171.897 69.4231 159.886 67.6642C147.874 65.9053 135.001 65 122 65C108.999 65 96.1256 65.9053 84.1143 67.6642C72.1031 69.4231 61.1894 72.0012 51.9964 75.2513C42.8034 78.5013 35.5111 82.3597 30.5359 86.6061C25.5607 90.8525 23 95.4037 23 100L122 100H221Z" fill="#F3D477"/>
<mask id="path-3-inside-1_586_5752" fill="white">
<path d="M221 105.5C221 100.969 218.439 96.4832 213.464 92.2974C208.489 88.1117 201.197 84.3084 192.004 81.1048C182.811 77.9012 171.897 75.3599 159.886 73.6262C147.874 71.8924 135.001 71 122 71C108.999 71 96.1256 71.8924 84.1143 73.6262C72.1031 75.3599 61.1894 77.9012 51.9964 81.1048C42.8034 84.3084 35.5111 88.1117 30.5359 92.2974C25.5607 96.4832 23 100.969 23 105.5L122 105.5H221Z"/>
</mask>
<path d="M221 105.5C221 100.969 218.439 96.4832 213.464 92.2974C208.489 88.1117 201.197 84.3084 192.004 81.1048C182.811 77.9012 171.897 75.3599 159.886 73.6262C147.874 71.8924 135.001 71 122 71C108.999 71 96.1256 71.8924 84.1143 73.6262C72.1031 75.3599 61.1894 77.9012 51.9964 81.1048C42.8034 84.3084 35.5111 88.1117 30.5359 92.2974C25.5607 96.4832 23 100.969 23 105.5L122 105.5H221Z" fill="#FFE7DD" stroke="#F9D8CA" stroke-width="6" mask="url(#path-3-inside-1_586_5752)"/>
<path d="M233.993 35.6514C235.89 35.3722 237.325 35.4876 238.221 35.9277C238.636 36.1317 238.929 36.4018 239.131 36.7539C239.338 37.1162 239.5 37.6553 239.5 38.4658V104.667C239.5 122.242 225.191 136.5 207.527 136.5H33.4727C15.8091 136.5 1.50015 122.242 1.5 104.667V38.4658C1.50001 37.6553 1.66164 37.1162 1.86914 36.7539C2.07092 36.4018 2.3645 36.1317 2.7793 35.9277C3.67489 35.4876 5.11037 35.3722 7.00684 35.6514C10.7463 36.2018 15.305 38.1315 18.2217 39.7734C24.0248 43.0402 29.3314 47.8472 33.8213 53.9492C38.3113 60.0513 41.888 67.3176 44.333 75.3398C46.7778 83.3614 48.0391 91.9686 48.0391 100.667V102.167H192.961V100.667C192.961 91.9686 194.222 83.3614 196.667 75.3398C199.112 67.3176 202.689 60.0513 207.179 53.9492C211.669 47.8472 216.975 43.0402 222.778 39.7734C225.695 38.1315 230.254 36.2018 233.993 35.6514Z" fill="#FFF7DF" stroke="#FDE393" stroke-width="3"/>
</svg>
