<svg width="402" height="264" viewBox="0 0 402 264" fill="none" xmlns="http://www.w3.org/2000/svg">
<rect y="3" width="402" height="363" fill="#C7B199"/>
<path d="M0 1.5H402M0 36.5H402M0 71.5H402M0 106.5H402M0 141.5H402M0 176.5H402M0 211.5H402M0 246.5H402M0 281.5H402M0 316.5H402M0 351.5H402M202.5 3V38M101.5 38V73M302.5 38V73M202.5 73V108M101.5 108V143M302.5 108V143M202.5 143V178M101.5 178V213M302.5 178V213M202.5 213V248M101.5 248V283M302.5 248V283M202.5 283V318M101.5 318V353M302.5 318V353M202.5 350V385" stroke="#9F8473" stroke-width="3"/>
</svg>
