<svg width="35" height="29" viewBox="0 0 35 29" fill="none" xmlns="http://www.w3.org/2000/svg">
<path d="M9.75098 12.9746V19.25H16.252V12.9746H21.7529V24.25C21.7529 26.1826 20.1853 27.7497 18.2529 27.75H7.75098C5.81842 27.75 4.25 26.1827 4.25 24.25V12.9746H9.75098ZM30.7539 12.9746V25C30.7539 26.5202 29.5239 27.75 28.0039 27.75C26.484 27.75 25.2539 26.5202 25.2539 25V12.9746H30.7539ZM26.7988 1.25C27.9721 1.25 29.0611 1.83453 29.71 2.81055L33.249 8.125C33.5711 8.60803 33.75 9.18213 33.75 9.77539C33.7498 11.4173 32.4162 12.75 30.7744 12.75H4.22559C2.58156 12.75 1.25011 11.415 1.25 9.77051C1.25 9.17882 1.4302 8.60924 1.74512 8.12891L1.75098 8.12012L5.29492 2.80957C5.94465 1.83283 7.03919 1.25 8.20605 1.25H26.7988Z" fill="#FDFDFD" stroke="#7B7876" stroke-width="2.5"/>
</svg>
