<svg xmlns="http://www.w3.org/2000/svg" width="402" height="367" viewBox="0 0 402 367" fill="none">
  <path d="M404.5 -2.5H-2.5V349.557H0C4.25735 349.557 7.07684 350.411 9.21582 351.584C11.4119 352.788 13.0437 354.401 14.9346 356.295C16.7741 358.137 18.873 360.26 21.7852 361.857C24.7545 363.486 28.4216 364.5 33.4062 364.5C38.3908 364.5 42.0602 363.486 45.0342 361.858C47.9511 360.262 50.0588 358.141 51.9062 356.299C53.8048 354.406 55.4435 352.791 57.6465 351.585C59.7926 350.411 62.6176 349.557 66.875 349.557C71.1324 349.557 73.9574 350.411 76.1035 351.585C78.3065 352.791 79.9452 354.406 81.8438 356.299C83.6912 358.141 85.7989 360.262 88.7158 361.858C91.6898 363.486 95.3592 364.5 100.344 364.5C105.328 364.5 108.998 363.486 111.972 361.858C114.889 360.262 116.996 358.141 118.844 356.299C120.742 354.406 122.381 352.791 124.584 351.585C126.73 350.411 129.555 349.557 133.812 349.557C138.07 349.557 140.895 350.411 143.041 351.585C145.244 352.791 146.883 354.406 148.781 356.299C150.629 358.141 152.736 360.262 155.653 361.858C158.627 363.486 162.297 364.5 167.281 364.5C172.266 364.5 175.935 363.486 178.909 361.858C181.826 360.262 183.934 358.141 185.781 356.299C187.68 354.406 189.319 352.791 191.521 351.585C193.668 350.411 196.493 349.557 200.75 349.557C205.007 349.557 207.832 350.411 209.979 351.585C212.181 352.791 213.82 354.406 215.719 356.299C217.566 358.141 219.674 360.262 222.591 361.858C225.565 363.486 229.234 364.5 234.219 364.5C239.203 364.5 242.873 363.486 245.847 361.858C248.764 360.262 250.871 358.141 252.719 356.299C254.617 354.406 256.256 352.791 258.459 351.585C260.605 350.411 263.43 349.557 267.688 349.557C271.945 349.557 274.77 350.411 276.916 351.585C279.119 352.791 280.758 354.406 282.656 356.299C284.504 358.141 286.611 360.262 289.528 361.858C292.502 363.486 296.172 364.5 301.156 364.5C306.141 364.5 309.81 363.486 312.784 361.858C315.701 360.262 317.809 358.141 319.656 356.299C321.555 354.406 323.194 352.791 325.396 351.585C327.543 350.411 330.368 349.557 334.625 349.557C338.882 349.557 341.707 350.411 343.854 351.585C346.056 352.791 347.695 354.406 349.594 356.299C351.441 358.141 353.549 360.262 356.466 361.858C359.44 363.486 363.109 364.5 368.094 364.5C373.079 364.5 376.769 363.485 379.775 361.866C382.725 360.278 384.884 358.167 386.786 356.324C388.739 354.432 390.436 352.806 392.688 351.593C394.884 350.41 397.743 349.557 402 349.557H404.5V-2.5Z" fill="#FFFCF5" stroke="#B39C8D" stroke-width="5"/>
</svg>
