<svg width="292" height="100" viewBox="0 0 292 100" fill="none" xmlns="http://www.w3.org/2000/svg">
<path d="M90.3965 28.9644C90.3965 25.8366 92.9442 23.301 96.0869 23.301C99.2296 23.301 101.777 25.8366 101.777 28.9644V77.5081C101.777 80.6359 99.2296 83.1715 96.0869 83.1715C92.9442 83.1715 90.3965 80.6359 90.3965 77.5081V28.9644Z" fill="url(#paint0_linear_1153_3717)"/>
<path fill-rule="evenodd" clip-rule="evenodd" d="M35.7661 64.529C35.7676 64.4325 35.7684 64.336 35.7684 64.2395H35.7661V64.529ZM35.7661 64.529C35.7634 64.7024 35.7582 64.8756 35.7506 65.0485H35.7661V64.529Z" fill="url(#paint1_linear_1153_3717)"/>
<path d="M1.38097 67.9937C0.49675 68.8434 1.0932e-07 69.9958 0 71.1974C3.41717e-08 72.5999 0.492053 73.9887 1.44801 75.2844C2.40396 76.5801 3.80503 77.7575 5.57135 78.7492C7.33773 79.7409 9.43496 80.5275 11.7429 81.0642C14.0006 81.5892 16.417 81.864 18.8597 81.8758V81.877C18.8882 81.877 18.9166 81.8765 18.9451 81.8764L18.9666 81.8765L18.9804 81.8767L18.9816 81.8767L18.9879 81.8768C18.9994 81.8769 19.0108 81.877 19.0223 81.877V81.8758C21.1874 81.854 23.329 81.3992 25.3303 80.5345C27.3818 79.6481 29.2458 78.3488 30.8159 76.711C32.386 75.0732 33.6316 73.129 34.4814 70.9891C35.232 69.0988 35.6608 67.0884 35.7506 65.0485C35.7582 64.8756 35.7634 64.7024 35.7661 64.529V64.2395V34.6278H42.4343C45.2179 34.6278 47.4744 32.382 47.4744 29.6116C47.4744 26.8413 45.2179 24.5955 42.4343 24.5955H11.8686C9.08504 24.5955 6.82851 26.8413 6.82851 29.6116C6.82851 32.382 9.08504 34.6278 11.8686 34.6278H24.225V64.8863C23.859 66.0907 23.3784 67.1923 22.7998 68.1479C22.0902 69.3199 21.2478 70.2496 20.3207 70.8839C19.3936 71.5182 18.3999 71.8447 17.3964 71.8447C16.393 71.8447 13.0791 71.4393 12.1055 71.1974C11.8681 71.103 11.633 70.9986 11.4012 70.8839C10.5114 70.4437 9.67798 69.8613 8.92324 69.1543C8.45435 68.7151 8.4059 68.3368 8.04888 67.9937C7.16466 67.144 5.9654 66.6667 4.71492 66.6667C3.46445 66.6667 2.26519 67.144 1.38097 67.9937Z" fill="url(#paint2_linear_1153_3717)"/>
<path d="M109.906 28.9644C109.906 25.8366 112.454 23.301 115.597 23.301C118.74 23.301 121.287 25.8366 121.287 28.9644V77.5081C121.287 80.6359 118.74 83.1715 115.597 83.1715C112.454 83.1715 109.906 80.6359 109.906 77.5081V28.9644Z" fill="url(#paint3_linear_1153_3717)"/>
<path d="M144.684 96.5389L165.543 49.9103C166.822 47.0529 165.531 43.7052 162.659 42.433C159.788 41.1608 156.425 42.4458 155.147 45.3033L146.628 64.3464L137.905 45.2836C136.603 42.437 133.228 41.1803 130.368 42.4766C127.508 43.7729 126.245 47.1313 127.548 49.9779L140.445 78.1658L134.287 91.9318C133.009 94.7892 134.3 98.137 137.171 99.4092C140.042 100.681 143.406 99.3963 144.684 96.5389Z" fill="url(#paint4_linear_1153_3717)"/>
<path d="M172.664 30.5825V76.699C172.664 79.7375 175.139 82.2006 178.192 82.2006H205.506C208.559 82.2006 211.033 79.7375 211.033 76.699C211.033 73.6606 208.559 71.1974 205.506 71.1974H184.045V30.5825C184.045 27.4547 181.497 24.9191 178.354 24.9191C175.211 24.9191 172.664 27.4547 172.664 30.5825Z" fill="url(#paint5_linear_1153_3717)"/>
<path d="M252.005 62.4595C252.005 73.541 242.978 82.5243 231.844 82.5243C220.71 82.5243 211.684 73.541 211.684 62.4595C211.684 51.3781 220.71 42.3948 231.844 42.3948C242.978 42.3948 252.005 51.3781 252.005 62.4595ZM223.518 62.4595C223.518 67.0359 227.246 70.7458 231.844 70.7458C236.442 70.7458 240.17 67.0359 240.17 62.4595C240.17 57.8832 236.442 54.1733 231.844 54.1733C227.246 54.1733 223.518 57.8832 223.518 62.4595Z" fill="url(#paint6_linear_1153_3717)"/>
<path fill-rule="evenodd" clip-rule="evenodd" d="M282.895 45.3074C283.86 45.3717 284.807 45.5209 285.707 45.7515C286.944 46.0686 288.069 46.5336 289.016 47.1196C289.963 47.7056 290.715 48.4013 291.227 49.1669C291.706 49.8827 291.968 50.6464 292 51.42V88.6731C292 91.6772 290.219 94.5583 287.048 96.6825C283.877 98.8067 279.576 100 275.091 100C270.607 100 266.306 98.8067 263.135 96.6825C259.964 94.5583 258.183 91.6772 258.183 88.6731C258.183 87.3857 258.645 86.151 259.468 85.2406C260.292 84.3303 261.408 83.8188 262.572 83.8188C263.737 83.8188 264.853 84.3303 265.676 85.2406C266.195 85.814 265.987 86.4078 266.777 87.2791C268.622 89.1571 271.014 90.2912 273.628 90.2913C276.99 90.2913 279.984 88.4165 281.92 85.495V79.8123C279.974 80.5055 277.917 80.8766 275.834 80.9046C273.062 80.9418 270.317 80.3705 267.805 79.234C265.293 78.0974 263.079 76.4249 261.329 74.3417C259.58 72.2585 258.339 69.8186 257.701 67.2049C257.063 64.5912 257.043 61.8712 257.644 59.2492C258.245 56.6272 259.45 54.1709 261.17 52.0644C262.89 49.9579 265.08 48.2556 267.575 47.0855C270.022 45.9382 272.7 45.3314 275.416 45.3081V45.3074H282.895ZM275.416 54.3689C273.433 54.369 271.531 55.2896 270.128 56.9282C268.726 58.5669 267.938 60.7894 267.938 63.1068C267.938 65.4242 268.726 67.6467 270.128 69.2854C271.531 70.924 273.433 71.8446 275.416 71.8447C276.292 71.8447 276.996 71.7275 277.805 71.4999C278.614 71.2722 279.349 70.9383 279.968 70.5176C280.587 70.0969 281.077 69.5974 281.412 69.0477C281.747 68.498 281.92 67.9089 281.92 67.3139V58.8997C281.92 58.3047 281.823 57.7156 281.635 57.1659C281.447 56.6162 281.172 56.1167 280.825 55.696C280.477 55.2753 280.065 54.9414 279.612 54.7137C279.158 54.486 278.671 54.3689 278.18 54.3689H275.416Z" fill="url(#paint7_linear_1153_3717)"/>
<path fill-rule="evenodd" clip-rule="evenodd" d="M65.5212 42.7184C67.8057 42.7184 70.0679 43.0911 72.1785 43.8148C74.2891 44.5385 76.2069 45.5993 77.8223 46.9366C79.4377 48.2739 80.7192 49.8614 81.5935 51.6086C82.4131 53.2467 82.8596 54.995 82.9122 56.7655C82.9141 56.8296 82.9158 56.8937 82.9167 56.9579H82.9176V56.9873C82.9176 57.007 82.9174 57.0267 82.9173 57.0464C82.9175 57.0708 82.9176 57.0953 82.9176 57.1197H82.917C82.9068 58.212 82.7938 59.2914 82.5836 60.3016C82.363 61.3617 82.0395 62.3251 81.6319 63.1365C81.2243 63.9479 80.7403 64.5914 80.2077 65.0305C79.7252 65.4283 79.2114 65.6514 78.6905 65.6898C78.6363 65.6938 78.5821 65.6958 78.5279 65.6958H57.5546V65.8576C57.5546 66.7288 57.8153 67.5915 58.3218 68.3963C58.8284 69.2013 59.5711 69.9328 60.5071 70.5489C61.4431 71.1649 62.5543 71.6535 63.7772 71.9869C65.0002 72.3203 66.311 72.4919 67.6348 72.4919C68.9585 72.4919 70.2693 72.3203 71.4923 71.9869C72.7152 71.6535 73.8264 71.1649 74.7624 70.5489C74.7782 70.5385 74.7934 70.5286 74.8084 70.5189C74.8591 70.486 74.9073 70.4548 74.9669 70.4102C75.075 70.3292 75.1517 70.2469 75.2263 70.1668C75.288 70.1006 75.3484 70.0359 75.4239 69.9746C75.8315 69.6441 76.3155 69.3818 76.848 69.2029C77.3806 69.024 77.9514 68.932 78.5279 68.932C78.6886 68.932 78.8489 68.9393 79.008 68.9535C79.4196 68.9903 79.8236 69.0739 80.2077 69.2029C80.7403 69.3818 81.2243 69.6441 81.6319 69.9746C82.0395 70.3052 82.363 70.6976 82.5836 71.1295C82.8042 71.5614 82.9176 72.0244 82.9176 72.4919C82.9176 74.981 81.0847 77.3681 77.8223 79.1281C74.5598 80.8882 70.135 81.877 65.5212 81.877C65.0439 81.877 64.5685 81.8663 64.0964 81.8454L64.0478 81.8432C61.87 81.8432 59.0734 81.3705 57.0614 80.3866C55.0494 79.4026 53.2212 77.9606 51.6813 76.1425C50.1413 74.3244 48.9197 72.1659 48.0863 69.7904C47.336 67.6518 46.9136 65.375 46.8368 63.066C46.8721 61.67 46.9803 60.2973 47.1581 58.9999C47.3787 57.3901 47.7022 55.9275 48.1098 54.6954C48.5106 53.4839 48.5729 53.3596 49.406 51.6946L49.4489 51.6086C50.3232 49.8614 51.6047 48.2739 53.2201 46.9366C54.8355 45.5994 56.7532 44.5385 58.8638 43.8148C60.9745 43.0911 63.2367 42.7184 65.5212 42.7184ZM66.1715 50.4854C64.0586 50.4854 62.0323 51.0993 60.5382 52.1917C59.0443 53.2842 58.2049 54.7658 58.2049 56.3107C58.2049 57.3831 59.0784 58.2524 60.1559 58.2524H72.1871C73.2646 58.2524 74.1381 57.3831 74.1381 56.3107C74.1381 54.7658 73.2988 53.2842 71.8048 52.1917C70.3108 51.0993 68.2844 50.4854 66.1715 50.4854Z" fill="url(#paint8_linear_1153_3717)"/>
<path d="M251.908 25.1743C254.178 25.7239 256.307 26.453 258.241 27.3394C258.769 27.5817 259.398 27.4687 259.791 27.0414L275.576 9.87052C277.042 9.06146 279.481 21.0356 279.319 34.6278C279.319 35.9223 286.797 41.5857 286.797 36.8932C286.797 27.0014 286.067 16.3628 283.557 7.44884C282.923 5.19679 282.63 4.19163 281.235 3.04604C277.596 0.0561535 272.21 0.569048 269.205 4.19163L257.122 18.7623C252.617 16.9071 247.24 15.8935 241.687 15.8935C237.098 15.8935 232.628 16.586 228.671 17.8739L216.413 3.09137C213.408 -0.531211 208.022 -1.04411 204.382 1.94578C202.342 3.43393 200.49 8.3556 200.075 10.6576C198.432 19.7692 197.766 28.7699 198.118 36.5741C198.368 42.1071 206.24 36.3851 206.081 34.5019C205.366 26.0277 207.87 7.15561 210.309 9.09185L225.592 26.183C225.961 26.5951 226.55 26.7271 227.068 26.53C228.321 26.0528 229.641 25.6365 231.015 25.2865C234.313 24.4465 237.857 24.004 241.443 23.9847C245.029 23.9655 248.586 24.3698 251.908 25.1743Z" fill="url(#paint9_linear_1153_3717)"/>
<path d="M251.908 25.1743C254.178 25.7239 256.307 26.453 258.241 27.3394C258.769 27.5817 259.398 27.4687 259.791 27.0414L275.576 9.87052C277.042 9.06146 279.481 21.0356 279.319 34.6278C279.319 35.9223 286.797 41.5857 286.797 36.8932C286.797 27.0014 286.067 16.3628 283.557 7.44884C282.923 5.19679 282.63 4.19163 281.235 3.04604C277.596 0.0561535 272.21 0.569048 269.205 4.19163L257.122 18.7623C252.617 16.9071 247.24 15.8935 241.687 15.8935C237.098 15.8935 232.628 16.586 228.671 17.8739L216.413 3.09137C213.408 -0.531211 208.022 -1.04411 204.382 1.94578C202.342 3.43393 200.49 8.3556 200.075 10.6576C198.432 19.7692 197.766 28.7699 198.118 36.5741C198.368 42.1071 206.24 36.3851 206.081 34.5019C205.366 26.0277 207.87 7.15561 210.309 9.09185L225.592 26.183C225.961 26.5951 226.55 26.7271 227.068 26.53C228.321 26.0528 229.641 25.6365 231.015 25.2865C234.313 24.4465 237.857 24.004 241.443 23.9847C245.029 23.9655 248.586 24.3698 251.908 25.1743Z" fill="url(#paint10_linear_1153_3717)"/>
<defs>
<linearGradient id="paint0_linear_1153_3717" x1="292" y1="50" x2="0" y2="50" gradientUnits="userSpaceOnUse">
<stop stop-color="#BD877C"/>
<stop offset="1" stop-color="#DDAB97"/>
</linearGradient>
<linearGradient id="paint1_linear_1153_3717" x1="292" y1="50" x2="0" y2="50" gradientUnits="userSpaceOnUse">
<stop stop-color="#BD877C"/>
<stop offset="1" stop-color="#DDAB97"/>
</linearGradient>
<linearGradient id="paint2_linear_1153_3717" x1="292" y1="50" x2="0" y2="50" gradientUnits="userSpaceOnUse">
<stop stop-color="#BD877C"/>
<stop offset="1" stop-color="#DDAB97"/>
</linearGradient>
<linearGradient id="paint3_linear_1153_3717" x1="292" y1="50" x2="0" y2="50" gradientUnits="userSpaceOnUse">
<stop stop-color="#BD877C"/>
<stop offset="1" stop-color="#DDAB97"/>
</linearGradient>
<linearGradient id="paint4_linear_1153_3717" x1="292" y1="50" x2="0" y2="50" gradientUnits="userSpaceOnUse">
<stop stop-color="#BD877C"/>
<stop offset="1" stop-color="#DDAB97"/>
</linearGradient>
<linearGradient id="paint5_linear_1153_3717" x1="292" y1="50" x2="0" y2="50" gradientUnits="userSpaceOnUse">
<stop stop-color="#BD877C"/>
<stop offset="1" stop-color="#DDAB97"/>
</linearGradient>
<linearGradient id="paint6_linear_1153_3717" x1="292" y1="50" x2="0" y2="50" gradientUnits="userSpaceOnUse">
<stop stop-color="#BD877C"/>
<stop offset="1" stop-color="#DDAB97"/>
</linearGradient>
<linearGradient id="paint7_linear_1153_3717" x1="292" y1="50" x2="0" y2="50" gradientUnits="userSpaceOnUse">
<stop stop-color="#BD877C"/>
<stop offset="1" stop-color="#DDAB97"/>
</linearGradient>
<linearGradient id="paint8_linear_1153_3717" x1="292" y1="50" x2="0" y2="50" gradientUnits="userSpaceOnUse">
<stop stop-color="#BD877C"/>
<stop offset="1" stop-color="#DDAB97"/>
</linearGradient>
<linearGradient id="paint9_linear_1153_3717" x1="292" y1="50" x2="0" y2="50" gradientUnits="userSpaceOnUse">
<stop stop-color="#BD877C"/>
<stop offset="1" stop-color="#DDAB97"/>
</linearGradient>
<linearGradient id="paint10_linear_1153_3717" x1="292" y1="50" x2="0" y2="50" gradientUnits="userSpaceOnUse">
<stop stop-color="#BD877C"/>
<stop offset="1" stop-color="#DDAB97"/>
</linearGradient>
</defs>
</svg>
