<svg width="30" height="21" viewBox="0 0 30 21" fill="none" xmlns="http://www.w3.org/2000/svg">
<path d="M15 0C7.545 0 0 2.325 0 6.75V14.25C0 18.675 7.545 21 15 21C22.455 21 30 18.675 30 14.25V6.75C30 2.325 22.455 0 15 0ZM3 14.25V10.95C3.87 11.46 4.875 11.88 6 12.24V16.56C4.035 15.795 3 14.865 3 14.25ZM21 12.975V17.43C19.695 17.7 18.195 17.895 16.5 17.97V13.47C18.045 13.41 19.56 13.23 21 12.975ZM13.5 13.47V17.97C11.805 17.895 10.305 17.7 9 17.43V12.975C10.44 13.23 11.955 13.41 13.5 13.47ZM24 16.575V12.255C25.125 11.895 26.13 11.475 27 10.965V14.265C27 14.895 25.965 15.81 24 16.575ZM15 10.515C7.23 10.515 3 8.04 3 6.765C3 5.49 7.23 3.015 15 3.015C22.77 3.015 27 5.49 27 6.765C27 8.04 22.77 10.515 15 10.515Z" fill="#B39C8D"/>
<path d="M3 14.25V10.95C3.87 11.46 4.875 11.88 6 12.24V16.56C4.035 15.795 3 14.865 3 14.25Z" fill="#FFFCF5"/>
<path d="M13.5 13.47V17.97C11.805 17.895 10.305 17.7 9 17.43V12.975C10.44 13.23 11.955 13.41 13.5 13.47Z" fill="#FFFCF5"/>
<path d="M21 12.975V17.43C19.695 17.7 18.195 17.895 16.5 17.97V13.47C18.045 13.41 19.56 13.23 21 12.975Z" fill="#FFFCF5"/>
<path d="M24 16.575V12.255C25.125 11.895 26.13 11.475 27 10.965V14.265C27 14.895 25.965 15.81 24 16.575Z" fill="#FFFCF5"/>
<path d="M15 10.515C7.23 10.515 3 8.04 3 6.765C3 5.49 7.23 3.015 15 3.015C22.77 3.015 27 5.49 27 6.765C27 8.04 22.77 10.515 15 10.515Z" fill="#FFFCF5"/>
</svg>
