<svg width="39" height="30" viewBox="0 0 39 30" fill="none" xmlns="http://www.w3.org/2000/svg">
<path d="M32.03 11.438C34.0298 13.8032 33.614 16.6976 33.614 19.25C33.614 26.2808 24.1334 28.25 19.25 28.25C14.3666 28.25 4.886 26.2808 4.886 19.25C4.886 16.6976 4.4702 13.8032 6.47 11.438M32.03 11.438C31.679 11.024 31.256 10.628 30.7412 10.25M32.03 11.438C33.29 12.1634 33.6122 9.449 33.614 8.5616V5.1884C33.614 2.2634 31.6034 1.25 29.879 1.25C28.1564 1.25 24.7076 4.0634 23.5592 4.0634C22.1804 4.0634 21.914 3.7808 19.25 3.7808C16.586 3.7808 16.3196 4.0634 14.9408 4.0634C13.7924 4.0634 10.3436 1.25 8.621 1.25C6.8984 1.25 4.886 2.2634 4.886 5.1884V8.5634C4.8896 9.449 5.21 12.1634 6.47 11.438M6.47 11.438C6.821 11.024 7.244 10.628 7.7588 10.25M37.25 20.0942C36.3806 19.5308 32.606 18.125 31.1534 18.125M34.3466 24.5942C33.4754 24.0308 31.4432 22.625 29.9906 22.625M1.25 20.0942C2.1212 19.5308 5.894 18.125 7.3466 18.125M4.1534 24.5942C5.0246 24.0308 7.0568 22.625 8.5094 22.625M20.7368 21.05C20.7368 21.3614 20.087 21.6134 19.2842 21.6134C18.4832 21.6134 17.8334 21.3614 17.8334 21.05C17.8334 20.7386 18.4832 20.4884 19.2842 20.4884C20.0852 20.4884 20.7368 20.7404 20.7368 21.05ZM25.55 16.7192C25.55 17.495 25.1594 18.125 24.6788 18.125C24.1982 18.125 23.8076 17.495 23.8076 16.7192C23.8076 15.9434 24.1982 15.3134 24.6788 15.3134C25.1594 15.3134 25.55 15.9452 25.55 16.7192ZM14.75 16.7192C14.75 17.495 14.3594 18.125 13.8788 18.125C13.3982 18.125 13.0076 17.495 13.0076 16.7192C13.0076 15.9434 13.3982 15.3134 13.8788 15.3134C14.3594 15.3134 14.75 15.9452 14.75 16.7192Z" stroke="#7B7876" stroke-width="2.5" stroke-linecap="round"/>
</svg>
