<svg width="33" height="28" viewBox="0 0 33 28" fill="none" xmlns="http://www.w3.org/2000/svg">
<path d="M31.25 13.5227V20.5305C31.25 21.4713 30.069 21.8915 29.4748 21.1622L25.25 15.9773H10.25C8.59315 15.9773 7.25 14.8783 7.25 13.5227V3.70455C7.25 2.34894 8.59315 1.25 10.25 1.25H28.25C29.9069 1.25 31.25 2.34894 31.25 3.70455V13.5227Z" fill="#FDFDFD"/>
<path d="M25.25 15.9773V18.4318C25.25 19.7818 23.9 20.8864 22.25 20.8864H7.25L3.02523 26.0713C2.43096 26.8006 1.25 26.3804 1.25 25.4396V8.61364C1.25 7.26364 2.6 6.15909 4.25 6.15909H7.25M25.25 15.9773H10.25C8.59315 15.9773 7.25 14.8783 7.25 13.5227V3.70455C7.25 2.34894 8.59315 1.25 10.25 1.25H28.25C29.9069 1.25 31.25 2.34894 31.25 3.70455V13.5227V20.5305C31.25 21.4713 30.069 21.8915 29.4748 21.1622L25.25 15.9773Z" stroke="#7B7876" stroke-width="2.5"/>
</svg>
