<svg width="33" height="30" viewBox="0 0 33 30" fill="none" xmlns="http://www.w3.org/2000/svg">
<path d="M27.9167 28.25H4.58333C1.91667 28.25 1.25 26.0006 1.25 24.875V4.625C1.25 3.72989 1.60119 2.87145 2.22631 2.23851C2.85143 1.60558 3.69928 1.25 4.58333 1.25H21.25C22.1341 1.25 22.9819 1.60558 23.607 2.23851C24.2321 2.87145 24.5833 3.72989 24.5833 4.625V14.75M27.9167 28.25C26.805 28.25 24.5833 27.575 24.5833 24.875V14.75M27.9167 28.25C30.5833 28.25 31.25 26.0006 31.25 24.875V14.75H24.5833" fill="#FDFDFD"/>
<path d="M6.25 10.5312H19.5833H6.25ZM6.25 17.2812H14.5833H6.25Z" fill="#FDFDFD"/>
<path d="M27.9167 28.25H4.58333C1.91667 28.25 1.25 26.0006 1.25 24.875V4.625C1.25 3.72989 1.60119 2.87145 2.22631 2.23851C2.85143 1.60558 3.69928 1.25 4.58333 1.25H21.25C22.1341 1.25 22.9819 1.60558 23.607 2.23851C24.2321 2.87145 24.5833 3.72989 24.5833 4.625V14.75M27.9167 28.25C26.805 28.25 24.5833 27.575 24.5833 24.875V14.75M27.9167 28.25C30.5833 28.25 31.25 26.0006 31.25 24.875V14.75H24.5833M6.25 10.5312H19.5833M6.25 17.2812H14.5833" stroke="#7B7876" stroke-width="2.5" stroke-linecap="round" stroke-linejoin="round"/>
</svg>
