<svg width="30" height="29" viewBox="0 0 30 29" fill="none" xmlns="http://www.w3.org/2000/svg">
<path fill-rule="evenodd" clip-rule="evenodd" d="M18.8032 0C19.3555 0 19.8032 0.447715 19.8032 1V2.87283C19.8032 3.258 20.0262 3.6057 20.3644 3.78996C20.5746 3.90445 20.7813 4.02528 20.9843 4.15229C21.2919 4.34473 21.6815 4.36271 21.9944 4.17892L23.6081 3.23832C24.0881 2.9585 24.7042 3.12371 24.9799 3.60618L25.9136 5.24032L28.2066 9.25971L29.1496 10.9112C29.4216 11.3875 29.2592 11.9939 28.7856 12.2705L27.1583 13.2211C26.8451 13.4025 26.6685 13.7487 26.6812 14.1104C26.6857 14.2404 26.688 14.3702 26.688 14.5C26.688 14.6298 26.6857 14.7596 26.6812 14.8896C26.6685 15.2514 26.8451 15.5975 27.1583 15.7789L28.7856 16.7295C29.2592 17.0061 29.4216 17.6125 29.1496 18.0888L28.2066 19.7403L25.9136 23.7597L24.98 25.3938C24.7043 25.8763 24.0882 26.0415 23.6081 25.7617L21.9944 24.8211C21.6815 24.6373 21.2919 24.6553 20.9843 24.8477C20.7813 24.9747 20.5746 25.0955 20.3645 25.21C20.0262 25.3942 19.8032 25.7419 19.8032 26.1271V28C19.8032 28.5523 19.3555 29 18.8032 29H10.4795C9.92726 29 9.47954 28.5523 9.47954 28V26.1271C9.47954 25.7419 9.25651 25.3942 8.91827 25.21C8.7085 25.0957 8.50215 24.9751 8.2995 24.8484C7.99112 24.6555 7.60072 24.6372 7.28688 24.8211L5.67471 25.7613C5.19462 26.0413 4.57834 25.8761 4.30264 25.3936L3.36914 23.7597L1.07464 19.7403L0.131747 18.089C-0.140251 17.6126 0.0222678 17.006 0.495998 16.7295L2.12442 15.7789C2.43701 15.5974 2.61379 15.2521 2.60156 14.8908C2.59715 14.7606 2.59489 14.6303 2.59476 14.5C2.59476 14.3698 2.59704 14.2396 2.60151 14.1093C2.6139 13.7479 2.43705 13.4027 2.12435 13.2211L0.495982 12.2704C0.0222591 11.9939 -0.140254 11.3873 0.131741 10.911L1.07464 9.25965L3.36914 5.24032L4.30264 3.60641C4.57834 3.12385 5.19462 2.95867 5.67471 3.23866L7.28695 4.17892C7.60074 4.36275 7.9911 4.34449 8.29944 4.15164C8.50212 4.02487 8.7085 3.90426 8.9183 3.78996C9.25652 3.60569 9.47954 3.258 9.47954 2.87283V1C9.47954 0.447715 9.92726 0 10.4795 0H18.8032ZM16.9351 3.90002C16.9351 3.34774 16.4874 2.90002 15.9351 2.90002H13.3476C12.7954 2.90002 12.3476 3.34774 12.3476 3.90002V4.75131C12.3476 5.20665 12.0379 5.59906 11.6084 5.75049C10.5188 6.13475 9.52274 6.71871 8.66474 7.46303C8.31721 7.76452 7.81654 7.83794 7.41933 7.60581L6.72507 7.20008C6.24481 6.91941 5.62781 7.08461 5.35204 7.5677L4.04943 9.84962C3.7775 10.326 3.94007 10.9325 4.4138 11.209L5.14197 11.634C5.53261 11.8621 5.71604 12.323 5.63069 12.7672C5.52284 13.3284 5.46279 13.907 5.46279 14.5C5.46279 15.0931 5.52284 15.6717 5.63068 16.2329C5.71604 16.6771 5.53261 17.138 5.14198 17.366L4.41377 17.7911C3.94005 18.0676 3.77749 18.6741 4.04942 19.1505L5.35202 21.4324C5.6278 21.9155 6.24482 22.0807 6.72509 21.8L7.41929 21.3942C7.81652 21.1621 8.31723 21.2355 8.66477 21.537C9.52276 22.2814 10.5188 22.8653 11.6084 23.2496C12.0379 23.401 12.3476 23.7934 12.3476 24.2488V25.1C12.3476 25.6523 12.7954 26.1 13.3476 26.1H15.9351C16.4874 26.1 16.9351 25.6523 16.9351 25.1V24.2488C16.9351 23.7934 17.2449 23.401 17.6743 23.2496C18.7638 22.8654 19.7598 22.2815 20.6177 21.5372C20.9653 21.2356 21.4662 21.1622 21.8635 21.3946L22.5563 21.7998C23.0365 22.0806 23.6536 21.9156 23.9295 21.4325L25.2329 19.1506C25.505 18.6742 25.3425 18.0675 24.8687 17.791L24.1407 17.366C23.7501 17.138 23.5667 16.6771 23.652 16.2329C23.7599 15.6717 23.8199 15.0931 23.8199 14.5C23.8199 13.907 23.7598 13.3284 23.652 12.7672C23.5667 12.323 23.7501 11.8621 24.1408 11.634L24.8687 11.2092C25.3425 10.9326 25.505 10.3259 25.2329 9.84952L23.9295 7.56758C23.6535 7.08456 23.0365 6.91954 22.5563 7.20035L21.8634 7.60555C21.4662 7.83786 20.9654 7.76447 20.6177 7.46292C19.7598 6.71868 18.7638 6.13479 17.6743 5.75056C17.2449 5.59913 16.9351 5.20672 16.9351 4.75138V3.90002ZM14.6412 8.69999C17.8094 8.69999 20.3774 11.2965 20.3774 14.5C20.3774 17.7034 17.8094 20.3 14.6412 20.3C11.473 20.3 8.90508 17.7035 8.90508 14.5C8.90508 11.2965 11.473 8.69999 14.6412 8.69999ZM14.6412 11.6C13.057 11.6 11.7732 12.8982 11.7732 14.5C11.7732 16.1019 13.057 17.4 14.6412 17.4C16.2254 17.4 17.5093 16.1018 17.5093 14.5C17.5093 12.8981 16.2254 11.6 14.6412 11.6Z" fill="#B39C8D"/>
<path fill-rule="evenodd" clip-rule="evenodd" d="M16.9351 3.90002C16.9351 3.34774 16.4874 2.90002 15.9351 2.90002H13.3476C12.7954 2.90002 12.3476 3.34774 12.3476 3.90002V4.75131C12.3476 5.20665 12.0379 5.59906 11.6084 5.75049C10.5188 6.13475 9.52274 6.71871 8.66474 7.46303C8.31721 7.76452 7.81654 7.83794 7.41933 7.60581L6.72507 7.20008C6.24481 6.91941 5.62781 7.08461 5.35204 7.5677L4.04943 9.84962C3.7775 10.326 3.94007 10.9325 4.4138 11.209L5.14197 11.634C5.53261 11.8621 5.71604 12.323 5.63069 12.7672C5.52284 13.3284 5.46279 13.907 5.46279 14.5C5.46279 15.0931 5.52284 15.6717 5.63068 16.2329C5.71604 16.6771 5.53261 17.138 5.14198 17.366L4.41377 17.7911C3.94005 18.0676 3.77749 18.6741 4.04942 19.1505L5.35202 21.4324C5.6278 21.9155 6.24482 22.0807 6.72509 21.8L7.41929 21.3942C7.81652 21.1621 8.31723 21.2355 8.66477 21.537C9.52276 22.2814 10.5188 22.8653 11.6084 23.2496C12.0379 23.401 12.3476 23.7934 12.3476 24.2488V25.1C12.3476 25.6523 12.7954 26.1 13.3476 26.1H15.9351C16.4874 26.1 16.9351 25.6523 16.9351 25.1V24.2488C16.9351 23.7934 17.2449 23.401 17.6743 23.2496C18.7638 22.8654 19.7598 22.2815 20.6177 21.5372C20.9653 21.2356 21.4662 21.1622 21.8635 21.3946L22.5563 21.7998C23.0365 22.0806 23.6536 21.9156 23.9295 21.4325L25.2329 19.1506C25.505 18.6742 25.3425 18.0675 24.8687 17.791L24.1407 17.366C23.7501 17.138 23.5667 16.6771 23.652 16.2329C23.7599 15.6717 23.8199 15.0931 23.8199 14.5C23.8199 13.907 23.7598 13.3284 23.652 12.7672C23.5667 12.323 23.7501 11.8621 24.1408 11.634L24.8687 11.2092C25.3425 10.9326 25.505 10.3259 25.2329 9.84952L23.9295 7.56758C23.6535 7.08456 23.0365 6.91954 22.5563 7.20035L21.8634 7.60555C21.4662 7.83786 20.9654 7.76447 20.6177 7.46292C19.7598 6.71868 18.7638 6.13479 17.6743 5.75056C17.2449 5.59913 16.9351 5.20672 16.9351 4.75138V3.90002ZM20.3774 14.5C20.3774 11.2965 17.8094 8.69999 14.6412 8.69999C11.473 8.69999 8.90508 11.2965 8.90508 14.5C8.90508 17.7035 11.473 20.3 14.6412 20.3C17.8094 20.3 20.3774 17.7034 20.3774 14.5Z" fill="#FFFCF5"/>
</svg>
