<svg width="55" height="48" viewBox="0 0 55 48" fill="none" xmlns="http://www.w3.org/2000/svg">
<path d="M53.627 15.6848V32.5998C53.627 36.1098 50.9656 39.5158 46.1543 42.1027C41.3837 44.6676 34.7238 46.2853 27.3135 46.2853C19.9032 46.2853 13.2442 44.6675 8.47363 42.1027C3.66201 39.5158 1 36.1099 1 32.5998V15.6848H53.627Z" fill="#FDE393" stroke="#A2956C" stroke-width="2"/>
<path d="M27.3135 1C34.7238 1 41.3837 2.6168 46.1543 5.18164C50.9657 7.7685 53.6268 11.1746 53.627 14.6846C53.627 18.1946 50.9657 21.6006 46.1543 24.1875C41.3837 26.7523 34.7238 28.3691 27.3135 28.3691C19.9032 28.3691 13.2442 26.7523 8.47363 24.1875C3.66196 21.6006 1 18.1947 1 14.6846C1.00011 11.1745 3.66205 7.76852 8.47363 5.18164C13.2442 2.61688 19.9033 1.00003 27.3135 1Z" fill="#D9D9D9" stroke="#A2956C" stroke-width="2"/>
<path d="M27.5 4C33.5885 4 39.0514 5.26358 42.9551 7.25879C46.9123 9.28145 49 11.8957 49 14.5C49 17.1043 46.9123 19.7186 42.9551 21.7412C39.0514 23.7364 33.5885 25 27.5 25C21.4115 25 15.9486 23.7364 12.0449 21.7412C8.08768 19.7186 6 17.1043 6 14.5C6 11.8957 8.08768 9.28145 12.0449 7.25879C15.9486 5.26358 21.4115 4 27.5 4Z" fill="#D9D9D9" stroke="#9F9F9F" stroke-width="2"/>
<path d="M37.0063 9.81091C39.5498 9.81098 41.803 10.369 43.3843 11.222C45.006 12.0969 45.6977 13.1388 45.6978 14.0394C45.6978 14.9401 45.006 15.9819 43.3843 16.8568C41.803 17.7098 39.5498 18.2679 37.0063 18.2679C34.2594 18.2679 32.0478 18.2534 30.5015 17.6771C29.7703 17.4046 29.2541 17.0266 28.9077 16.5072C28.5568 15.9812 28.314 15.211 28.314 14.0394C28.314 12.9793 28.5495 12.2565 28.9009 11.7426C29.2525 11.2283 29.7813 10.8335 30.5239 10.5365C32.0701 9.91817 34.298 9.81091 37.0063 9.81091Z" fill="#D9D9D9" stroke="#9F9F9F" stroke-width="2"/>
<path d="M33.7744 12.7479C34.7771 12.7479 35.6354 12.9698 36.207 13.2781C36.8178 13.6076 36.8865 13.8956 36.8867 13.9656C36.8867 14.035 36.8189 14.324 36.207 14.6541C35.6354 14.9624 34.7771 15.1844 33.7744 15.1844C32.5687 15.1844 31.7533 15.1694 31.2168 14.9695C30.9903 14.8851 30.8825 14.7893 30.8184 14.6932C30.7499 14.5904 30.6631 14.3845 30.6631 13.9656C30.6631 13.6032 30.7425 13.4172 30.8115 13.3162C30.8808 13.215 31.0009 13.1095 31.2383 13.0145C31.7746 12.8 32.6073 12.7479 33.7744 12.7479Z" fill="#D9D9D9" stroke="#9F9F9F" stroke-width="2"/>
<path d="M41.5586 12.7479C42.2226 12.7481 42.7607 13.2869 42.7607 13.951C42.7605 14.6149 42.2225 15.1529 41.5586 15.1531C40.8945 15.1531 40.3557 14.615 40.3555 13.951C40.3555 13.2867 40.8944 12.7479 41.5586 12.7479Z" fill="#D9D9D9" stroke="#9F9F9F" stroke-width="2"/>
<path d="M16.4473 37.2993C16.4473 40.2189 21.0336 42.5858 23.9194 42.5858C26.2067 42.5858 32.2389 39.436 32.7134 39.0284C33.1879 38.6209 33.9144 39.2209 35.9741 40.4628C38.0339 41.7047 38.0339 40.1789 38.0339 39.1186V35.48C38.0339 34.4197 38.0339 33.0407 35.9741 34.1358C33.9144 35.2309 33.1199 35.75 32.7134 35.5701C32.3068 35.3903 26.2067 32.0128 23.9194 32.0128C21.0336 32.0128 16.4473 34.3796 16.4473 37.2993Z" fill="#B0C8FF" stroke="#99A5C2" stroke-width="2"/>
</svg>
